# xmcd CD database file
# Copyright (C) 1997 Ti Kan
#
# Track frame offsets:
#  150
#  13020
#  22460
#  32782
#  44282
#  56845
#  68182
#  80562
#  92437
#  102540
#  113935
#  128235
#  143807
#  155555
#
# Disc length: 2240 seconds
#
# Revision: 1
# Processed by: cddbd v1.4b41PL1 Copyright (c) Steve Scherf et al.
# Submitted via: CDWizzard Release:4.35
#
DISCID=c708be0e
DTITLE=Jr and His Soulettes - Psychodelic Sounds
DYEAR=1900
DGENRE=
TTITLE0=Thing, do The Creep
TTITLE1=Momma Love Tequilla
TTITLE2=Pimp
TTITLE3=Waw-Wah Rock
TTITLE4=Love From Above
TTITLE5=Flip Will
TTITLE6=Do Your Funky Thing
TTITLE7=Slow
TTITLE8=Sweet Little One
TTITLE9=Dewetha
TTITLE10=Dat-Walk
TTITLE11=Rock N Roll Santa
TTITLE12=Rock Blues 
TTITLE13=Pop Junior Pop
EXTD=
EXTT0=
EXTT1=
EXTT2=
EXTT3=
EXTT4=
EXTT5=
EXTT6=
EXTT7=
EXTT8=
EXTT9=
EXTT10=
EXTT11=
EXTT12=
EXTT13=
PLAYORDER=
